<?xml version="1.0" standalone="no"?>
<!DOCTYPE svg PUBLIC "-//W3C//DTD SVG 1.1//EN" "http://www.w3.org/Graphics/SVG/1.1/DTD/svg11.dtd" >
<svg>
<metadata>
Created by FontForge 20110222 at Thu Aug  8 07:07:21 2013
 By www-data
Copyright (c) 2013 by Frank Hemmekam. All rights reserved.
</metadata>
<defs>
<font id="BaronNeue-Normal" horiz-adv-x="608" >
  <font-face 
    font-family="Baron Neue"
    font-weight="250"
    font-stretch="normal"
    units-per-em="1000"
    panose-1="2 11 0 0 0 0 0 0 0 0"
    ascent="750"
    descent="-250"
    x-height="700"
    cap-height="700"
    bbox="0 -292 997 924"
    underline-thickness="50"
    underline-position="-50"
    stemh="117"
    stemv="117"
    unicode-range="U+0020-2122"
  />
    <missing-glyph />
    <glyph glyph-name="Idieresis" unicode="&#xcf;" horiz-adv-x="362" 
d="M112 0v700h117v-700h-117zM116 797c0 -31 -26 -57 -58 -57c-31 0 -57 26 -57 57c0 32 26 58 57 58c32 0 58 -26 58 -58zM334 797c0 -31 -26 -57 -58 -57c-31 0 -57 26 -57 57c0 32 26 58 57 58c32 0 58 -26 58 -58z" />
    <glyph glyph-name="Odieresis" unicode="&#xd6;" horiz-adv-x="840" 
d="M349 700c195 0 351 -157 351 -351c0 -193 -156 -349 -351 -349c-193 0 -349 156 -349 349c0 194 156 351 349 351zM349 116c130 0 234 105 234 233c0 130 -104 234 -234 234c-128 0 -233 -104 -233 -234c0 -128 105 -233 233 -233zM296 797c0 -31 -26 -57 -58 -57
c-31 0 -57 26 -57 57c0 32 26 58 57 58c32 0 58 -26 58 -58zM514 797c0 -31 -26 -57 -58 -57c-31 0 -57 26 -57 57c0 32 26 58 57 58c32 0 58 -26 58 -58z" />
    <glyph glyph-name="Udieresis" unicode="&#xdc;" horiz-adv-x="724" 
d="M291 0c-117 0 -208 53 -256 149c-34 69 -35 136 -35 143v408h117v-408s0 -48 24 -94c29 -54 78 -81 150 -81c73 0 122 27 150 81c24 46 25 94 25 94v408h117v-408c0 -7 -1 -74 -35 -143c-48 -96 -139 -149 -257 -149zM246 797c0 -31 -26 -57 -58 -57c-31 0 -57 26 -57 57
c0 32 26 58 57 58c32 0 58 -26 58 -58zM464 797c0 -31 -26 -57 -58 -57c-31 0 -57 26 -57 57c0 32 26 58 57 58c32 0 58 -26 58 -58z" />
    <glyph glyph-name="Edieresis" unicode="&#xcb;" 
d="M467 583h-350v-175h350v-116h-350v-175h350v-117h-467v700h467v-117zM186 797c0 -31 -26 -57 -58 -57c-31 0 -57 26 -57 57c0 32 26 58 57 58c32 0 58 -26 58 -58zM404 797c0 -31 -26 -57 -58 -57c-31 0 -57 26 -57 57c0 32 26 58 57 58c32 0 58 -26 58 -58z" />
    <glyph glyph-name="Adieresis" unicode="&#xc4;" horiz-adv-x="700" 
d="M433 0l-35 88h-237l-35 -88h-126l279 700l280 -700h-126zM207 204h145l-73 181zM227 797c0 -31 -26 -57 -58 -57c-31 0 -57 26 -57 57c0 32 26 58 57 58c32 0 58 -26 58 -58zM445 797c0 -31 -26 -57 -58 -57c-31 0 -57 26 -57 57c0 32 26 58 57 58c32 0 58 -26 58 -58z
" />
    <glyph glyph-name="Ntilde" unicode="&#xd1;" horiz-adv-x="726" 
d="M583 700v-700h-118l-348 498v-498h-117v700h118l349 -498v498h116zM211 740h-114c0 37 2 82 43 116c30 24 65 32 101 32c40 0 73 -12 108 -12c8 0 32 2 32 34h114c0 -37 -2 -82 -44 -115c-30 -25 -67 -32 -103 -32c-39 0 -71 11 -105 11c-8 0 -32 -1 -32 -34z" />
    <glyph glyph-name="Atilde" unicode="&#xc3;" horiz-adv-x="723" 
d="M433 0l-35 88h-237l-35 -88h-126l279 700l280 -700h-126zM207 204h145l-73 181zM192 740h-114c0 37 2 82 43 116c30 24 65 32 101 32c40 0 73 -12 108 -12c8 0 32 2 32 34h114c0 -37 -2 -82 -44 -115c-30 -25 -67 -32 -103 -32c-39 0 -71 11 -105 11c-8 0 -32 -1 -32 -34
z" />
    <glyph glyph-name="Otilde" unicode="&#xd5;" horiz-adv-x="864" 
d="M349 700c195 0 351 -157 351 -351c0 -193 -156 -349 -351 -349c-193 0 -349 156 -349 349c0 194 156 351 349 351zM349 116c130 0 234 105 234 233c0 130 -104 234 -234 234c-128 0 -233 -104 -233 -234c0 -128 105 -233 233 -233zM258 740h-114c0 37 2 82 43 116
c30 24 65 32 101 32c40 0 73 -12 108 -12c8 0 32 2 32 34h114c0 -37 -2 -82 -44 -115c-30 -25 -67 -32 -103 -32c-39 0 -71 11 -105 11c-8 0 -32 -1 -32 -34z" />
    <glyph glyph-name="Aacute" unicode="&#xc1;" horiz-adv-x="723" 
d="M433 0l-35 88h-237l-35 -88h-126l279 700l280 -700h-126zM207 204h145l-73 181zM460 924l21 -111l-387 -73l-21 111z" />
    <glyph glyph-name="Eacute" unicode="&#xc9;" 
d="M467 583h-350v-175h350v-116h-350v-175h350v-117h-467v700h467v-117zM417 924l21 -111l-387 -73l-21 111z" />
    <glyph glyph-name="Iacute" unicode="&#xcd;" horiz-adv-x="501" 
d="M156 0v700h117v-700h-117zM387 924l21 -111l-387 -73l-21 111z" />
    <glyph glyph-name="Oacute" unicode="&#xd3;" horiz-adv-x="864" 
d="M349 700c195 0 351 -157 351 -351c0 -193 -156 -349 -351 -349c-193 0 -349 156 -349 349c0 194 156 351 349 351zM349 116c130 0 234 105 234 233c0 130 -104 234 -234 234c-128 0 -233 -104 -233 -234c0 -128 105 -233 233 -233zM527 924l21 -111l-387 -73l-21 111z
" />
    <glyph glyph-name="Uacute" unicode="&#xda;" horiz-adv-x="743" 
d="M291 0c-117 0 -208 53 -256 149c-34 69 -35 136 -35 143v408h117v-408s0 -48 24 -94c29 -54 78 -81 150 -81c73 0 122 27 150 81c24 46 25 94 25 94v408h117v-408c0 -7 -1 -74 -35 -143c-48 -96 -139 -149 -257 -149zM467 924l21 -111l-387 -73l-21 111z" />
    <glyph glyph-name="Yacute" unicode="&#xdd;" horiz-adv-x="808" 
d="M500 700h143l-263 -369v-331h-117v331l-263 369h143l179 -250zM497 924l21 -111l-387 -73l-21 111z" />
    <glyph glyph-name="Agrave" unicode="&#xc0;" horiz-adv-x="723" 
d="M433 0l-35 88h-237l-35 -88h-126l279 700l280 -700h-126zM207 204h145l-73 181zM79 813l21 111l387 -73l-21 -111z" />
    <glyph glyph-name="Egrave" unicode="&#xc8;" 
d="M467 583h-350v-175h350v-116h-350v-175h350v-117h-467v700h467v-117zM31 813l21 111l387 -73l-21 -111z" />
    <glyph glyph-name="Ograve" unicode="&#xd2;" horiz-adv-x="864" 
d="M349 700c195 0 351 -157 351 -351c0 -193 -156 -349 -351 -349c-193 0 -349 156 -349 349c0 194 156 351 349 351zM349 116c130 0 234 105 234 233c0 130 -104 234 -234 234c-128 0 -233 -104 -233 -234c0 -128 105 -233 233 -233zM145 813l21 111l387 -73l-21 -111z" />
    <glyph glyph-name="Ugrave" unicode="&#xd9;" horiz-adv-x="743" 
d="M291 0c118 0 209 53 257 149c34 69 35 136 35 143v408h-117v-408s-1 -48 -25 -94c-28 -54 -77 -81 -150 -81c-72 0 -121 27 -150 81c-24 46 -24 94 -24 94v408h-117v-408c0 -7 1 -74 35 -143c48 -96 139 -149 256 -149zM83 813l21 111l387 -73l-21 -111z" />
    <glyph glyph-name="Ydieresis" unicode="&#x178;" horiz-adv-x="808" 
d="M500 700h143l-263 -369v-331h-117v331l-263 369h143l179 -250zM271 797c0 -31 -26 -57 -58 -57c-31 0 -57 26 -57 57c0 32 26 58 57 58c32 0 58 -26 58 -58zM489 797c0 -31 -26 -57 -58 -57c-31 0 -57 26 -57 57c0 32 26 58 57 58c32 0 58 -26 58 -58z" />
    <glyph glyph-name="exclam" unicode="!" horiz-adv-x="258" 
d="M0 700h117v-496h-117v496zM58 117c33 0 59 -27 59 -59s-26 -58 -59 -58c-32 0 -58 26 -58 58s26 59 58 59z" />
    <glyph glyph-name="period" unicode="." horiz-adv-x="258" 
d="M58 117c33 0 59 -27 59 -59s-26 -58 -59 -58c-32 0 -58 26 -58 58s26 59 58 59z" />
    <glyph glyph-name="question" unicode="?" horiz-adv-x="572" 
d="M204 700c112 0 204 -92 204 -204c0 -91 -61 -170 -146 -195v-96h-116v200l70 5c43 6 75 43 75 86c0 48 -39 87 -87 87s-88 -39 -88 -87h-116c0 112 91 204 204 204zM204 117c32 0 58 -26 58 -58s-26 -58 -58 -58s-58 26 -58 58s26 58 58 58z" />
    <glyph glyph-name="bracketright" unicode="]" horiz-adv-x="398" 
d="M233 700v-700h-233v117h117v466h-117v117h233z" />
    <glyph glyph-name="bracketleft" unicode="[" horiz-adv-x="397" 
d="M0 700h233v-117h-116v-466h116v-117h-233v700z" />
    <glyph glyph-name="eight" unicode="8" horiz-adv-x="551" 
d="M347 351c38 -37 62 -89 62 -146c0 -113 -92 -205 -205 -205c-112 0 -204 92 -204 205c0 57 24 109 61 146c-37 37 -61 89 -61 146c0 112 92 204 204 204c113 0 205 -92 205 -204c0 -57 -24 -109 -62 -146zM117 497c0 -49 39 -88 87 -88c49 0 88 39 88 88
c0 48 -39 87 -88 87c-48 0 -87 -39 -87 -87zM204 117c49 0 88 39 88 88c0 48 -39 87 -88 87c-48 0 -87 -39 -87 -87c0 -49 39 -88 87 -88z" />
    <glyph glyph-name="three" unicode="3" horiz-adv-x="549" 
d="M204 1c-113 0 -204 91 -204 204h117c0 -49 39 -88 87 -88s87 39 87 88c0 43 -32 80 -75 86l-16 1v116l16 1c43 6 75 43 75 87c0 48 -39 87 -87 87s-87 -39 -87 -87h-117c0 112 91 204 204 204c112 0 204 -92 204 -204c0 -57 -23 -109 -61 -146c38 -37 61 -89 61 -145
c0 -113 -92 -204 -204 -204z" />
    <glyph glyph-name="seven" unicode="7" horiz-adv-x="545" 
d="M18 0l218 582h-236v117h405l-263 -699h-124z" />
    <glyph glyph-name="nine" unicode="9" horiz-adv-x="549" 
d="M389 582c12 -26 19 -55 19 -86c0 -21 -2 -41 -9 -60l-156 -435h-123l104 292c-7 -1 -13 -1 -20 -1c-113 0 -204 91 -204 204c0 112 91 204 204 204c56 0 107 -23 144 -60c17 -17 31 -37 41 -58zM288 472c2 8 3 16 3 24c0 48 -39 87 -87 87s-87 -39 -87 -87s39 -87 87 -87
c36 0 67 21 80 52c2 4 3 7 4 11z" />
    <glyph glyph-name="six" unicode="6" horiz-adv-x="549" 
d="M19 119c-12 26 -19 55 -19 86c0 20 2 40 9 59l155 436h124l-104 -292c6 0 13 1 20 1c112 0 204 -92 204 -204c0 -113 -92 -204 -204 -204c-56 0 -107 22 -144 59c-17 17 -31 37 -41 59zM120 228c-2 -7 -3 -15 -3 -23c0 -49 39 -88 87 -88s87 39 87 88c0 48 -39 87 -87 87
c-36 0 -67 -22 -80 -53c-2 -3 -3 -7 -4 -11z" />
    <glyph glyph-name="zero" unicode="0" horiz-adv-x="549" 
d="M204 0c-113 0 -204 91 -204 204v291c0 112 91 204 204 204c112 0 204 -92 204 -204v-291c0 -113 -92 -204 -204 -204zM204 582c-48 0 -87 -39 -87 -87v-291c0 -49 39 -88 87 -88s87 39 87 88v291c0 48 -39 87 -87 87z" />
    <glyph glyph-name="bar" unicode="|" horiz-adv-x="281" 
d="M0 700h117v-700h-117v700z" />
    <glyph glyph-name="five" unicode="5" horiz-adv-x="547" 
d="M204 2c-113 0 -204 91 -204 204h116c0 -49 39 -88 88 -88c48 0 87 39 87 88c0 48 -39 87 -87 87h-204v407h407v-116h-291v-175h88c112 0 203 -91 203 -203c0 -113 -91 -204 -203 -204z" />
    <glyph glyph-name="four" unicode="4" horiz-adv-x="547" 
d="M405 700v-700h-116v262h-289v110l289 328h116zM289 523l-127 -144h127v144z" />
    <glyph glyph-name="two" unicode="2" horiz-adv-x="550" 
d="M408 117v-117h-408v106l290 406c-8 41 -43 71 -86 71c-48 0 -87 -39 -87 -87h-117c0 112 92 204 204 204c113 0 204 -92 204 -204v-19l-257 -360h257z" />
    <glyph glyph-name="one" unicode="1" horiz-adv-x="396" 
d="M255 700v-700h-117v567l-95 -38l-43 108l156 63h99z" />
    <glyph glyph-name="braceright" unicode="}" horiz-adv-x="470" 
d="M175 285v-285h-175v117h58v466h-58v117h175v-285l130 -65z" />
    <glyph glyph-name="braceleft" unicode="{" horiz-adv-x="470" 
d="M130 415v285h175v-117h-58v-466h58v-117h-175v285l-130 65z" />
    <glyph glyph-name="ampersand" unicode="&#x26;" horiz-adv-x="697" 
d="M567 70l-83 -83l-83 83c-42 -43 -102 -71 -168 -71c-128 0 -233 105 -233 234c0 61 24 117 62 158c-38 32 -62 80 -62 134c0 96 79 175 175 175c97 0 175 -79 175 -175c0 -65 -35 -121 -87 -152l87 -87v122h205v-117h-88v-58c0 -20 -2 -39 -7 -57zM175 583
c-32 0 -58 -26 -58 -58s26 -59 58 -59s58 27 58 59s-26 58 -58 58zM233 116c34 0 64 14 85 37l-164 165c-23 -21 -37 -52 -37 -85c0 -65 52 -117 116 -117z" />
    <glyph glyph-name="percent" unicode="%" horiz-adv-x="797" 
d="M174 394c-84 0 -153 69 -153 153s69 153 153 153s153 -69 153 -153s-69 -153 -153 -153zM174 613c-36 0 -65 -30 -65 -66s29 -65 65 -65s65 29 65 65s-29 66 -65 66zM479 2c-84 0 -152 68 -152 152c0 85 68 153 152 153c85 0 153 -68 153 -153c0 -84 -68 -152 -153 -152z
M479 220c-36 0 -65 -29 -65 -66c0 -36 29 -65 65 -65c37 0 66 29 66 65c0 37 -29 66 -66 66zM111 2h-111l543 698h111z" />
    <glyph glyph-name="dollar" unicode="$" horiz-adv-x="578" 
d="M276 401c91 -17 161 -98 161 -197c0 -125 -105 -204 -218 -204c-121 0 -217 82 -219 204h117c1 -35 19 -59 45 -73v168c-91 17 -162 97 -162 197c0 124 106 204 219 204c121 0 216 -85 218 -204h-116c-1 35 -19 60 -45 74v-169zM117 496c0 -35 18 -60 45 -74v148
c-27 -14 -45 -39 -45 -74zM276 130c29 17 44 45 44 73s-15 56 -44 74v-147z" />
    <glyph glyph-name="colon" unicode=":" horiz-adv-x="258" 
d="M58 116c33 0 59 -26 59 -58s-26 -58 -59 -58c-32 0 -58 26 -58 58s26 58 58 58zM58 408c33 0 59 -26 59 -58s-26 -58 -59 -58c-32 0 -58 26 -58 58s26 58 58 58z" />
    <glyph glyph-name="semicolon" unicode=";" horiz-adv-x="258" 
d="M58 408c33 0 59 -26 59 -58s-26 -58 -59 -58c-32 0 -58 26 -58 58s26 58 58 58zM58 116c33 0 59 -26 59 -58c0 -102 -59 -101 -59 -101v43c-32 0 -58 26 -58 58s26 58 58 58z" />
    <glyph glyph-name="comma" unicode="," horiz-adv-x="258" 
d="M58 116c33 0 59 -26 59 -58c0 -102 -59 -101 -59 -101v43c-32 0 -58 26 -58 58s26 58 58 58z" />
    <glyph glyph-name="asciitilde" unicode="~" horiz-adv-x="618" 
d="M115 297h-114c0 37 2 82 43 116c30 24 65 32 101 32c40 0 73 -12 108 -12c8 0 32 2 32 34h114c0 -37 -2 -82 -44 -115c-30 -25 -67 -32 -103 -32c-39 0 -71 11 -105 11c-8 0 -32 -1 -32 -34z" />
    <glyph glyph-name="OE" unicode="&#x152;" horiz-adv-x="973" 
d="M467 583v-175h350v-116h-350v-175h350v-117h-467c-193 0 -350 157 -350 350s157 350 350 350h467v-117h-350zM121 350c0 -128 102 -231 229 -233v466c-127 -2 -229 -106 -229 -233z" />
    <glyph glyph-name="numbersign" unicode="#" horiz-adv-x="696" 
d="M555 408h-88v-146h88v-117h-88v-146h-116v146h-147v-146h-116v146h-88v117h88v146h-88v117h88v175h116v-175h147v175h116v-175h88v-117zM351 262v146h-147v-146h147z" />
    <glyph glyph-name="quotesingle" unicode="'" horiz-adv-x="257" 
d="M0 527v173h116v-173h-116z" />
    <glyph glyph-name="quotedbl" unicode="&#x22;" horiz-adv-x="495" 
d="M0 527v173h116v-173h-116zM217 527v173h116v-173h-116z" />
    <glyph glyph-name="grave" unicode="`" horiz-adv-x="278" 
d="M49 503l-49 166l111 33l49 -166z" />
    <glyph glyph-name="Aring" unicode="&#xc5;" horiz-adv-x="701" 
d="M342 542l217 -542h-126l-35 87h-237l-35 -87h-126l257 644c-47 9 -82 50 -82 100c0 56 46 102 102 102s102 -46 102 -102c0 -48 -33 -88 -78 -99zM233 744c0 -24 20 -44 44 -44s44 20 44 44s-20 44 -44 44s-44 -20 -44 -44zM207 204h144l-72 181z" />
    <glyph glyph-name="underscore" unicode="_" horiz-adv-x="597" 
d="M462 116v-116h-462v116h462z" />
    <glyph glyph-name="asterisk" unicode="*" horiz-adv-x="445" 
d="M304 573v-51h-91l71 -71l-36 -35l-70 70v-91h-51v91l-71 -70l-36 35l71 71h-91v51h91l-71 71l36 36l71 -71v91h51v-91l70 71l36 -36l-71 -71h91z" />
    <glyph glyph-name="plus" unicode="+" horiz-adv-x="606" 
d="M465 291v-117h-174v-174h-116v174h-175v117h175v174h116v-174h174z" />
    <glyph glyph-name="equal" unicode="=" horiz-adv-x="602" 
d="M462 406v-116h-462v116h462zM462 174v-116h-462v116h462z" />
    <glyph glyph-name="endash" unicode="&#x2013;" horiz-adv-x="560" 
d="M425 290v-116h-423v116h423z" />
    <glyph glyph-name="emdash" unicode="&#x2014;" horiz-adv-x="626" 
d="M483 290v-116h-481v116h481z" />
    <glyph glyph-name="divide" unicode="&#xf7;" horiz-adv-x="604" 
d="M464 174v116h-462v-116h462zM236 116c33 0 59 -26 59 -58s-26 -58 -59 -58c-32 0 -58 26 -58 58s26 58 58 58zM236 460c33 0 59 -26 59 -58s-26 -58 -59 -58c-32 0 -58 26 -58 58s26 58 58 58z" />
    <glyph glyph-name="slash" unicode="/" horiz-adv-x="625" 
d="M325 700h129l-325 -701h-129z" />
    <glyph glyph-name="backslash" unicode="\" horiz-adv-x="627" 
d="M129 700l325 -701h-129l-325 701h129z" />
    <glyph glyph-name="hyphen" unicode="-" horiz-adv-x="604" 
d="M464 405v-116h-462v116h462z" />
    <glyph glyph-name="multiply" unicode="&#xd7;" horiz-adv-x="577" 
d="M412 82l-83 -82l-123 123l-123 -123l-82 82l123 123l-124 123l83 83l124 -124l123 123l82 -82l-123 -123z" />
    <glyph glyph-name="questiondown" unicode="&#xbf;" horiz-adv-x="573" 
d="M204 1c-113 0 -204 91 -204 204c0 91 61 170 146 195v96h116v-200l-70 -5c-43 -6 -76 -43 -76 -86c0 -48 40 -88 88 -88s87 40 87 88h117c0 -113 -92 -204 -204 -204zM204 583c-32 0 -58 27 -58 59s26 58 58 58s58 -26 58 -58s-26 -59 -58 -59z" />
    <glyph glyph-name="exclamdown" unicode="&#xa1;" horiz-adv-x="280" 
d="M117 0h-117v496h117v-496zM58 583c-32 0 -58 26 -58 59c0 32 26 58 58 58c33 0 59 -26 59 -58c0 -33 -26 -59 -59 -59z" />
    <glyph glyph-name="degree" unicode="&#xb0;" horiz-adv-x="455" 
d="M174 394c-84 0 -153 69 -153 153s69 153 153 153s153 -69 153 -153s-69 -153 -153 -153zM174 613c-36 0 -65 -30 -65 -66s29 -65 65 -65s65 29 65 65s-29 66 -65 66z" />
    <glyph glyph-name="oslash" unicode="&#xf8;" horiz-adv-x="837" 
d="M635 145l73 -72l-81 -82l-72 74c-57 -41 -125 -65 -200 -65c-189 0 -342 153 -342 343c0 74 24 143 64 199l-77 77l81 81l77 -78c56 40 123 63 197 63c189 0 342 -153 342 -342c0 -74 -23 -142 -62 -198zM355 571c-42 0 -81 -11 -114 -31l312 -312c19 33 31 73 31 115
c0 125 -103 228 -229 228zM355 114c43 0 84 12 117 33l-313 313c-21 -34 -32 -74 -32 -117c0 -126 102 -229 228 -229z" />
    <glyph glyph-name="dagger" unicode="&#x2020;" horiz-adv-x="630" 
d="M292 525h175v-117h-175v-408h-117v408h-175v117h175v175h117v-175z" />
    <glyph glyph-name="daggerdbl" unicode="&#x2021;" horiz-adv-x="630" 
d="M292 525h175v-117h-175v-103h175v-117h-175v-188h-117v188h-175v117h175v103h-175v117h175v175h117v-175z" />
    <glyph glyph-name="germandbls" unicode="&#xdf;" horiz-adv-x="628" 
d="M124 585l-8 -585h-116v699h233s233 0 233 -204c0 -146 -116 -146 -116 -146c116 0 116 -145 116 -145c0 -204 -233 -204 -233 -204v116s117 0 117 88c0 87 -117 87 -117 87v117s117 0 117 87s-117 87 -117 90h-109z" />
    <glyph glyph-name="Ecircumflex" unicode="&#xca;" 
d="M467 583h-350v-175h350v-116h-350v-175h350v-117h-467v700h467v-117zM106 748l-34 112l163 55l163 -55l-34 -112l-129 44z" />
    <glyph glyph-name="Acircumflex" unicode="&#xc2;" horiz-adv-x="723" 
d="M433 0l-35 88h-237l-35 -88h-126l279 700l280 -700h-126zM207 204h145l-73 181zM154 748l-34 112l163 55l163 -55l-34 -112l-129 44z" />
    <glyph glyph-name="Icircumflex" unicode="&#xce;" horiz-adv-x="464" 
d="M160 0v700h117v-700h-117zM90 748l-34 112l163 55l163 -55l-34 -112l-129 44z" />
    <glyph glyph-name="parenright" unicode=")" horiz-adv-x="366" 
d="M136 699c23 -44 48 -102 66 -171c13 -51 23 -112 23 -180c0 -103 -23 -222 -90 -348h-135c72 112 109 227 109 346c0 50 -7 102 -20 153c-24 96 -66 166 -88 200h135z" />
    <glyph glyph-name="parenleft" unicode="(" horiz-adv-x="366" 
d="M89 0c-23 44 -49 102 -66 171c-13 52 -23 113 -23 181c0 103 23 221 90 347h135c-72 -112 -109 -227 -109 -346c0 -50 7 -102 20 -153c24 -96 65 -166 88 -200h-135z" />
    <glyph glyph-name="trademark" unicode="&#x2122;" horiz-adv-x="672" 
d="M148 700v-49h-49v-248h-50v248h-49v49h148zM507 403v297h-51l-108 -231l-112 231h-50v-297h49v186l91 -186h46l85 182v-182h50z" />
    <glyph glyph-name="cent" unicode="&#xa2;" horiz-adv-x="738" 
d="M393 121c47 9 89 32 121 65l83 -83c-63 -63 -151 -102 -247 -102c-194 0 -350 156 -350 349s156 350 350 350c96 0 184 -39 247 -102l-83 -83c-32 33 -74 56 -121 64v-458zM116 350c0 -103 67 -190 160 -221v443c-93 -31 -160 -119 -160 -222z" />
    <glyph glyph-name="acute" unicode="&#xb4;" horiz-adv-x="571" 
d="M387 924l21 -111l-387 -73l-21 111z" />
    <glyph glyph-name="periodcentered" unicode="&#xb7;" horiz-adv-x="258" 
d="M58 323c33 0 59 -27 59 -59s-26 -58 -59 -58c-32 0 -58 26 -58 58s26 59 58 59z" />
    <glyph glyph-name="Ucircumflex" unicode="&#xdb;" horiz-adv-x="743" 
d="M291 0c-117 0 -208 53 -256 149c-34 69 -35 136 -35 143v408h117v-408s0 -48 24 -94c29 -54 78 -81 150 -81c73 0 122 27 150 81c24 46 25 94 25 94v408h117v-408c0 -7 -1 -74 -35 -143c-48 -96 -139 -149 -257 -149zM158 748l-34 112l163 55l163 -55l-34 -112l-129 44z
" />
    <glyph glyph-name="Ocircumflex" unicode="&#xd4;" horiz-adv-x="864" 
d="M349 700c194 0 350 -157 350 -350s-156 -349 -350 -349c-193 0 -349 156 -349 349s156 350 349 350zM349 117c129 0 233 105 233 233c0 129 -104 233 -233 233c-128 0 -233 -104 -233 -233c0 -128 105 -233 233 -233zM217 748l-34 112l163 55l163 -55l-34 -112l-129 44z
" />
    <glyph glyph-name="Euro" unicode="&#x20ac;" horiz-adv-x="738" 
d="M350 117c64 0 122 26 164 69l83 -83c-63 -63 -151 -102 -247 -102c-194 0 -350 156 -350 349s156 350 350 350c96 0 184 -39 247 -102l-83 -83c-42 42 -100 68 -164 68c-60 0 -113 -22 -155 -58h242v-146h-319c-1 -9 -2 -19 -2 -29c0 -9 1 -18 2 -29h319v-145h-242
c42 -37 95 -59 155 -59z" />
    <glyph glyph-name="at" unicode="@" horiz-adv-x="895" 
d="M350 525c96 0 175 -79 175 -175c0 -20 -4 -40 -10 -58h68v58c0 129 -104 233 -233 233s-233 -104 -233 -233s104 -233 233 -233h350v-117h-350c-193 0 -350 157 -350 350s157 350 350 350s350 -157 350 -350v-175h-350c-97 0 -175 78 -175 175c0 96 78 175 175 175z
M292 350c0 -32 26 -58 58 -58s58 26 58 58s-26 58 -58 58s-58 -26 -58 -58z" />
    <glyph glyph-name="less" unicode="&#x3c;" horiz-adv-x="483" 
d="M263 556l80 -83l-185 -195l185 -194l-80 -84l-263 278z" />
    <glyph glyph-name="greater" unicode="&#x3e;" horiz-adv-x="483" 
d="M79 0l-79 84l184 194l-184 195l79 83l264 -278z" />
    <glyph glyph-name="AE" unicode="&#xc6;" horiz-adv-x="916" 
d="M513 116h188v-116h-268l-35 87h-237l-35 -87h-126l280 700h304v-117h-258l70 -175h246v-117h-199zM207 204h145l-72 181z" />
    <glyph glyph-name="onesuperior" unicode="&#xb9;" horiz-adv-x="312" 
d="M147 700v-403h-68v326l-54 -21l-25 62l90 36h57z" />
    <glyph glyph-name="twosuperior" unicode="&#xb2;" horiz-adv-x="400" 
d="M235 365v-67h-235v60l167 234c-5 23 -25 41 -50 41c-27 0 -50 -23 -50 -50h-67c0 64 53 117 117 117c65 0 118 -53 118 -117v-11l-148 -207h148z" />
    <glyph glyph-name="threesuperior" unicode="&#xb3;" horiz-adv-x="399" 
d="M117 299c-65 0 -117 52 -117 117h67c0 -28 22 -50 50 -50s50 22 50 50c0 25 -18 46 -43 49l-9 1v67h9c25 4 43 25 43 50c0 28 -22 50 -50 50s-50 -22 -50 -50h-67c0 64 52 117 117 117c64 0 117 -53 117 -117c0 -33 -13 -63 -35 -84c22 -21 35 -51 35 -83
c0 -65 -53 -117 -117 -117z" />
    <glyph glyph-name="space" unicode=" " horiz-adv-x="440" 
 />
    <glyph glyph-name="Igrave" unicode="&#xcc;" horiz-adv-x="501" 
d="M156 0v700h117v-700h-117zM11 813l21 111l387 -73l-21 -111z" />
    <glyph glyph-name="tilde" unicode="&#x2dc;" horiz-adv-x="550" 
d="M114 740h-114c0 37 2 82 43 116c30 24 65 32 101 32c40 0 73 -12 108 -12c8 0 32 2 32 34h114c0 -37 -2 -82 -44 -115c-30 -25 -67 -32 -103 -32c-39 0 -71 11 -105 11c-8 0 -32 -1 -32 -34z" />
    <glyph glyph-name="dieresis" unicode="&#xa8;" horiz-adv-x="362" 
d="M116 797c0 -31 -26 -57 -58 -57c-31 0 -57 26 -57 57c0 32 26 58 57 58c32 0 58 -26 58 -58zM334 797c0 -31 -26 -57 -58 -57c-31 0 -57 26 -57 57c0 32 26 58 57 58c32 0 58 -26 58 -58z" />
    <glyph glyph-name="asciicircum" unicode="^" horiz-adv-x="594" 
d="M430 496l-65 -61l-150 143l-150 -143l-65 61l215 204z" />
    <glyph glyph-name="cedilla" unicode="&#xb8;" horiz-adv-x="568" 
d="M204 -292c-113 0 -204 92 -204 205h116c0 -49 39 -88 88 -88c48 0 87 39 87 88c0 48 -39 87 -87 87v117c112 0 204 -92 204 -204c0 -113 -92 -205 -204 -205z" />
    <glyph glyph-name="bullet" unicode="&#x2022;" horiz-adv-x="357" 
d="M216 350c0 -59 -48 -108 -108 -108c-59 0 -108 49 -108 108c0 60 49 108 108 108c60 0 108 -48 108 -108z" />
    <glyph glyph-name="circumflex" unicode="&#x2c6;" horiz-adv-x="489" 
d="M34 748l-34 112l163 55l163 -55l-34 -112l-129 44z" />
    <glyph glyph-name="scaron" unicode="&#x161;" horiz-adv-x="601" 
d="M219 0c-121 3 -217 82 -219 204h117c2 -58 50 -87 102 -87c54 0 102 32 102 87c0 59 -55 86 -102 88c-6 0 -54 0 -105 23c-73 34 -114 98 -114 181c0 124 106 204 219 204c121 0 216 -85 218 -204h-116c-2 58 -49 87 -102 87c-55 0 -102 -31 -102 -87
c0 -58 50 -88 102 -88c5 0 54 0 104 -23c74 -34 114 -98 114 -181c0 -125 -105 -204 -218 -204zM349 909l34 -112l-163 -55l-163 55l34 112l129 -44z" />
    <glyph glyph-name="Ccedilla" unicode="&#xc7;" horiz-adv-x="738" 
d="M515 185l82 -82c-31 -31 -68 -57 -108 -74c22 -33 36 -73 36 -116c0 -113 -92 -205 -204 -205c-113 0 -204 92 -204 205h116c0 -49 39 -88 88 -88c48 0 87 39 87 88c0 48 -39 87 -87 88c-180 15 -321 166 -321 349c0 193 157 350 350 350c97 0 184 -39 247 -103l-82 -82
c-42 42 -101 68 -165 68c-129 0 -233 -104 -233 -233s104 -233 233 -233c64 0 123 26 165 68z" />
    <glyph glyph-name="yen" unicode="&#xa5;" horiz-adv-x="808" 
d="M644 701l-229 -321h142v-117h-176v-29h176v-117h-176v-117h-117v117h-175v117h175v29h-175v117h140l-229 321h644zM417 584h-190l95 -133z" />
    <glyph glyph-name="Oslash" unicode="&#xd8;" horiz-adv-x="837" 
d="M0 69l74 73c-40 56 -63 125 -63 199c0 190 154 344 344 344c74 0 142 -23 198 -63l78 78l81 -81l-77 -78c41 -56 65 -126 65 -200c0 -191 -154 -345 -345 -345c-75 0 -144 24 -201 65l-73 -74zM470 539c-33 20 -73 31 -115 31c-126 0 -229 -103 -229 -229
c0 -42 11 -82 31 -116zM237 144c35 -21 75 -33 118 -33c127 0 230 103 230 230c0 43 -12 83 -33 118z" />
    <glyph glyph-name="sterling" unicode="&#xa3;" horiz-adv-x="681" 
d="M170 243c-8 -37 -14 -78 -16 -121h363v-122h-487v61c0 65 6 126 16 182h-46v122h79c7 20 15 39 24 57c40 82 96 147 167 195c121 82 242 83 248 83v-122c-1 0 -94 -2 -184 -65c-52 -36 -93 -86 -123 -148h93v-122h-134z" />
    <glyph glyph-name="ellipsis" unicode="&#x2026;" horiz-adv-x="521" 
d="M58 117c33 0 59 -27 59 -59s-26 -58 -59 -58c-32 0 -58 26 -58 58s26 59 58 59zM203 117c33 0 59 -27 59 -59s-26 -58 -59 -58c-32 0 -58 26 -58 58s26 59 58 59zM351 117c33 0 59 -27 59 -59s-26 -58 -59 -58c-32 0 -58 26 -58 58s26 59 58 59z" />
    <glyph glyph-name="copyright" unicode="&#xa9;" horiz-adv-x="745" 
d="M299 700c167 0 300 -135 300 -301c0 -165 -133 -298 -300 -298c-166 0 -299 133 -299 298c0 166 133 301 299 301zM299 200c111 0 200 90 200 199c0 111 -89 201 -200 201c-109 0 -200 -90 -200 -201c0 -109 91 -199 200 -199zM298 294c31 0 57 13 76 31l38 -37
c-29 -29 -69 -47 -114 -47c-87 0 -159 72 -159 159c0 89 72 161 159 161c45 0 85 -18 114 -47l-38 -38c-19 19 -45 32 -76 32c-58 0 -106 -48 -106 -108c0 -58 48 -106 106 -106z" />
    <glyph glyph-name="registered" unicode="&#xae;" horiz-adv-x="745" 
d="M299 700c167 0 300 -135 300 -301c0 -165 -133 -298 -300 -298c-166 0 -299 133 -299 298c0 166 133 301 299 301zM299 200c111 0 200 90 200 199c0 111 -89 201 -200 201c-109 0 -200 -90 -200 -201c0 -109 91 -199 200 -199zM352 254l-58 120h-40v-120h-50v289h99
s100 0 100 -84c0 -46 -31 -68 -58 -77l61 -128h-54zM254 494v-71h49s50 0 50 36c0 35 -50 35 -50 35h-49z" />
    <glyph glyph-name="A" unicode="A" horiz-adv-x="700" 
d="M279 700l280 -700h-126l-23 58h-261l-23 -58h-126zM196 175h167l-84 210z" />
    <glyph glyph-name="B" unicode="B" horiz-adv-x="607" 
d="M349 349c117 0 117 -145 117 -145c0 -204 -233 -204 -233 -204h-233v699h233s233 0 233 -204c0 -146 -117 -146 -117 -146zM116 583v-175h117s116 0 116 87c0 88 -116 88 -116 88h-117zM233 116c0 0 116 0 116 88c0 87 -116 87 -116 87h-117v-175h117z" />
    <glyph glyph-name="C" unicode="C" horiz-adv-x="738" 
d="M350 117c64 0 123 26 165 68l82 -83c-63 -63 -150 -102 -247 -102c-193 0 -350 157 -350 350s157 350 350 350c97 0 184 -39 247 -103l-82 -82c-42 42 -101 68 -165 68c-129 0 -233 -104 -233 -233s104 -233 233 -233z" />
    <glyph glyph-name="D" unicode="D" horiz-adv-x="665" 
d="M117 699c0 0 407 0 407 -349c0 -350 -407 -350 -407 -350h-117v699h117zM117 117c0 0 291 0 291 233s-291 233 -291 233v-466z" />
    <glyph glyph-name="E" unicode="E" 
d="M467 583h-350v-175h291v-116h-291v-175h350v-117h-467v700h467v-117z" />
    <glyph glyph-name="F" unicode="F" 
d="M467 583h-350v-175h291v-116h-291v-292h-117v700h467v-117z" />
    <glyph glyph-name="G" unicode="G" horiz-adv-x="783" 
d="M408 408h234v-408h-117v47c-52 -30 -111 -47 -175 -47c-193 0 -350 157 -350 350s157 350 350 350c97 0 184 -39 247 -103l-82 -82c-42 42 -101 68 -165 68c-129 0 -233 -104 -233 -233s104 -233 233 -233c70 0 132 30 175 79v96h-117v116z" />
    <glyph glyph-name="H" unicode="H" horiz-adv-x="666" 
d="M408 700h117v-700h-117v292h-291v-292h-117v700h117v-290h291v290z" />
    <glyph glyph-name="I" unicode="I" horiz-adv-x="374" 
d="M233 583h-58v-466h58v-117h-233v117h58v466h-58v117h233v-117z" />
    <glyph glyph-name="K" unicode="K" horiz-adv-x="722" 
d="M580 700l-319 -356l291 -344h-153l-216 256l-66 -74v-182h-117v700h117v-343l307 343h156z" />
    <glyph glyph-name="L" unicode="L" horiz-adv-x="517" 
d="M117 117h259v-117h-376v700h117v-583z" />
    <glyph glyph-name="M" unicode="M" horiz-adv-x="900" 
d="M759 701v-701h-117v430l-201 -430h-110l-214 439v-439h-117v701h119l266 -545l255 545h119z" />
    <glyph glyph-name="N" unicode="N" horiz-adv-x="724" 
d="M583 700v-700h-118l-348 498v-498h-117v700h118l349 -498v498h116z" />
    <glyph glyph-name="O" unicode="O" horiz-adv-x="662" 
d="M260 180c-143 0 -260 117 -260 260s117 260 260 260s260 -117 260 -260s-117 -260 -260 -260zM260 584c-80 0 -144 -64 -144 -144s64 -144 144 -144s144 64 144 144s-64 144 -144 144zM488 116v-116h-462v116h462z" />
    <glyph glyph-name="P" unicode="P" horiz-adv-x="607" 
d="M233 700c0 0 233 0 233 -204s-233 -204 -233 -204h-116v-292h-117v408h111l-111 175v117h233zM248 409c31 4 102 19 102 87c0 87 -117 87 -117 87h-94z" />
    <glyph glyph-name="Q" unicode="Q" horiz-adv-x="842" 
d="M640 152l75 -79l-85 -80l-72 75c-58 -43 -129 -68 -207 -68c-194 0 -351 158 -351 352s157 351 351 351s352 -157 352 -351c0 -75 -23 -143 -63 -200zM585 352c0 129 -104 234 -234 234c-36 0 -70 -8 -101 -23l307 -323c18 33 28 71 28 112zM351 117c46 0 90 14 126 37
l-317 333c-27 -38 -43 -85 -43 -135c0 -130 105 -235 234 -235z" />
    <glyph glyph-name="R" unicode="R" horiz-adv-x="612" 
d="M503 0h-137l-182 292h-67v-292h-117v408h111l-111 175v117h233s234 0 234 -204c0 -124 -86 -173 -154 -192zM139 583l109 -174c31 3 102 18 102 87c0 87 -117 87 -117 87h-94z" />
    <glyph glyph-name="S" unicode="S" horiz-adv-x="578" 
d="M219 0c-121 3 -217 82 -219 204h117c2 -58 50 -87 102 -87c54 0 102 32 102 87c0 59 -55 86 -102 88c-6 0 -54 0 -105 23c-73 34 -114 98 -114 181c0 124 106 204 219 204c121 0 216 -85 218 -204h-116c-2 58 -49 87 -102 87c-55 0 -102 -31 -102 -87
c0 -58 50 -88 102 -88c5 0 54 0 104 -23c74 -34 114 -98 114 -181c0 -125 -105 -204 -218 -204z" />
    <glyph glyph-name="T" unicode="T" horiz-adv-x="491" 
d="M350 700v-117h-117v-583h-116v583h-117v117h350z" />
    <glyph glyph-name="U" unicode="U" horiz-adv-x="723" 
d="M0 700h582v-408c0 -7 -1 -74 -35 -142c-48 -96 -139 -149 -256 -149s-208 53 -256 149c-34 68 -35 135 -35 142v408zM441 199c24 45 25 93 25 94v290h-350v-291s1 -48 25 -93c29 -55 78 -81 150 -81c73 0 122 26 150 81z" />
    <glyph glyph-name="V" unicode="V" horiz-adv-x="700" 
d="M0 700h559l-279 -700zM172 584l108 -269l107 269h-215z" />
    <glyph glyph-name="W" unicode="W" horiz-adv-x="1137" 
d="M997 700l-280 -700l-219 548l-219 -548l-279 700h126l153 -385l154 385h130l154 -385l154 385h126z" />
    <glyph glyph-name="X" unicode="X" horiz-adv-x="784" 
d="M0 0l250 350l-250 350h143l179 -250l178 250h143l-250 -350l250 -350h-143l-178 250l-179 -250h-143z" />
    <glyph glyph-name="Y" unicode="Y" horiz-adv-x="784" 
d="M500 700h143l-263 -369v-331h-117v331l-263 369h143l179 -250z" />
    <glyph glyph-name="Z" unicode="Z" horiz-adv-x="548" 
d="M408 117v-117h-407l234 583h-235v117h407l-233 -583h234z" />
    <glyph glyph-name="a" unicode="a" horiz-adv-x="700" 
d="M433 0l-35 88h-237l-35 -88h-126l279 700l280 -700h-126zM207 204h145l-73 181z" />
    <glyph glyph-name="b" unicode="b" horiz-adv-x="607" 
d="M349 349c117 0 117 -145 117 -145c0 -204 -233 -204 -233 -204h-233v699h233s233 0 233 -204c0 -146 -117 -146 -117 -146zM116 583v-175h117s116 0 116 87c0 88 -116 88 -116 88h-117zM233 116c0 0 116 0 116 88c0 87 -116 87 -116 87h-117v-175h117z" />
    <glyph glyph-name="c" unicode="c" horiz-adv-x="738" 
d="M350 117c64 0 123 26 165 68l82 -83c-63 -63 -150 -102 -247 -102c-193 0 -350 157 -350 350s157 350 350 350c97 0 184 -39 247 -103l-82 -82c-42 42 -101 68 -165 68c-129 0 -233 -104 -233 -233s104 -233 233 -233z" />
    <glyph glyph-name="d" unicode="d" horiz-adv-x="665" 
d="M117 699c0 0 407 0 407 -349c0 -350 -407 -350 -407 -350h-117v699h117zM117 117c0 0 291 0 291 233s-291 233 -291 233v-466z" />
    <glyph glyph-name="e" unicode="e" 
d="M467 583h-350v-175h350v-116h-350v-175h350v-117h-467v700h467v-117z" />
    <glyph glyph-name="f" unicode="f" 
d="M467 583h-350v-175h350v-116h-350v-292h-117v700h467v-117z" />
    <glyph glyph-name="g" unicode="g" horiz-adv-x="783" 
d="M321 408h321v-408h-117v47c-52 -30 -111 -47 -175 -47c-193 0 -350 157 -350 350s157 350 350 350c97 0 184 -39 247 -103l-82 -82c-42 42 -101 68 -165 68c-129 0 -233 -104 -233 -233s104 -233 233 -233c70 0 132 30 175 79v96h-204v116z" />
    <glyph glyph-name="i" unicode="i" horiz-adv-x="259" 
d="M0 0v700h117v-700h-117z" />
    <glyph glyph-name="k" unicode="k" horiz-adv-x="721" 
d="M580 700l-319 -356l291 -344h-153l-216 256l-66 -74v-182h-117v700h117v-343l307 343h156z" />
    <glyph glyph-name="n" unicode="n" horiz-adv-x="725" 
d="M583 700v-700h-118l-348 498v-498h-117v700h118l349 -498v498h116z" />
    <glyph glyph-name="o" unicode="o" horiz-adv-x="841" 
d="M349 700c194 0 350 -157 350 -350s-156 -349 -350 -349c-193 0 -349 156 -349 349s156 350 349 350zM349 117c129 0 233 105 233 233c0 129 -104 233 -233 233c-128 0 -233 -104 -233 -233c0 -128 105 -233 233 -233z" />
    <glyph glyph-name="p" unicode="p" horiz-adv-x="607" 
d="M234 700c0 0 234 0 234 -205s-234 -205 -234 -205h-117v-292h-117v702h234zM234 407c0 0 117 0 117 88s-117 88 -117 88h-117v-176h117z" />
    <glyph glyph-name="q" unicode="q" horiz-adv-x="841" 
d="M711 73l-82 -82l-75 74c-57 -41 -128 -65 -204 -65c-193 0 -350 156 -350 350c0 193 157 350 350 350s350 -157 350 -350c0 -75 -23 -145 -64 -202zM350 116c44 0 85 13 120 34l-75 74l83 83l74 -74c20 34 32 74 32 117c0 129 -105 233 -234 233s-233 -104 -233 -233
s104 -234 233 -234z" />
    <glyph glyph-name="r" unicode="r" horiz-adv-x="606" 
d="M346 0l-134 292h-95v-292h-117v700h233s234 0 234 -204c0 -113 -72 -163 -135 -186l143 -310h-129zM117 583v-175h116s117 0 117 88c0 87 -117 87 -117 87h-116z" />
    <glyph glyph-name="s" unicode="s" horiz-adv-x="578" 
d="M219 0c-121 3 -217 82 -219 204h117c2 -58 50 -87 102 -87c54 0 102 32 102 87c0 59 -55 86 -102 88c-6 0 -54 0 -105 23c-73 34 -114 98 -114 181c0 124 106 204 219 204c121 0 216 -85 218 -204h-116c-2 58 -49 87 -102 87c-55 0 -102 -31 -102 -87
c0 -58 50 -88 102 -88c5 0 54 0 104 -23c74 -34 114 -98 114 -181c0 -125 -105 -204 -218 -204z" />
    <glyph glyph-name="t" unicode="t" horiz-adv-x="607" 
d="M467 700v-117h-175v-583h-117v583h-175v117h467z" />
    <glyph glyph-name="u" unicode="u" horiz-adv-x="665" 
d="M262 0c-144 6 -262 90 -262 234v466h117v-466c6 -81 71 -117 145 -117c73 0 146 39 146 117v466h117v-466c0 -149 -123 -233 -263 -234z" />
    <glyph glyph-name="v" unicode="v" horiz-adv-x="700" 
d="M433 700h126l-280 -700l-279 700h126l153 -385z" />
    <glyph glyph-name="w" unicode="w" horiz-adv-x="1137" 
d="M997 700l-280 -700l-219 548l-219 -548l-279 700h126l153 -385l154 385h130l154 -385l154 385h126z" />
    <glyph glyph-name="x" unicode="x" horiz-adv-x="784" 
d="M0 0l250 350l-250 350h143l179 -250l178 250h143l-250 -350l250 -350h-143l-178 250l-179 -250h-143z" />
    <glyph glyph-name="y" unicode="y" horiz-adv-x="784" 
d="M500 700h143l-263 -369v-331h-117v331l-263 369h143l179 -250z" />
    <glyph glyph-name="z" unicode="z" horiz-adv-x="708" 
d="M567 0h-567l359 583h-359v117h567l-358 -583h358v-117z" />
    <glyph glyph-name="h" unicode="h" horiz-adv-x="666" 
d="M408 700h117v-700h-117v292h-291v-292h-117v700h117v-290h291v290z" />
    <glyph glyph-name="l" unicode="l" horiz-adv-x="517" 
d="M117 117h259v-117h-376v700h117v-583z" />
    <glyph glyph-name="m" unicode="m" horiz-adv-x="900" 
d="M759 701v-701h-117v430l-201 -430h-110l-214 439v-439h-117v701h119l266 -545l255 545h119z" />
    <glyph glyph-name="j" unicode="j" horiz-adv-x="404" 
d="M146 701h117v-497c0 -204 -205 -204 -205 -204h-58v117h58c88 0 88 87 88 87v497z" />
    <glyph glyph-name="J" unicode="J" horiz-adv-x="427" 
d="M0 701h263v-497c0 -204 -205 -204 -205 -204h-58v117h58c88 0 88 87 88 87v380h-146v117z" />
    <glyph glyph-name="Eth" unicode="&#xd0;" horiz-adv-x="805" 
d="M233 700c0 0 409 0 409 -350s-409 -350 -409 -350h-116v292h-117v116h117v292h116zM233 117c0 0 292 0 292 233s-292 233 -292 233v-175h117v-116h-117v-175zM233 700c0 0 409 0 409 -350s-409 -350 -409 -350h-116v292h-117v116h117v292h116zM233 117c0 0 292 0 292 233
s-292 233 -292 233v-175h117v-116h-117v-175z" />
    <glyph glyph-name="perthousand" unicode="&#x2030;" horiz-adv-x="1133" 
d="M174 394c-84 0 -153 69 -153 153s69 153 153 153s153 -69 153 -153s-69 -153 -153 -153zM174 613c-36 0 -65 -30 -65 -66s29 -65 65 -65s65 29 65 65s-29 66 -65 66zM479 0c-84 0 -152 68 -152 152c0 85 68 153 152 153c85 0 153 -68 153 -153c0 -84 -68 -152 -153 -152z
M479 218c-36 0 -65 -29 -65 -66c0 -36 29 -65 65 -65c37 0 66 29 66 65c0 37 -29 66 -66 66zM111 2h-111l543 698h111zM827 0c-84 0 -152 68 -152 152c0 85 68 153 152 153c85 0 153 -68 153 -153c0 -84 -68 -152 -153 -152zM827 218c-36 0 -65 -29 -65 -66
c0 -36 29 -65 65 -65c37 0 66 29 66 65c0 37 -29 66 -66 66z" />
    <glyph glyph-name="quotedblbase" unicode="&#x201e;" horiz-adv-x="350" 
d="M58 116c33 0 59 -26 59 -58c0 -102 -59 -101 -59 -101v43c-32 0 -58 26 -58 58s26 58 58 58zM218 116c33 0 59 -26 59 -58c0 -102 -59 -101 -59 -101v43c-32 0 -58 26 -58 58s26 58 58 58z" />
    <glyph glyph-name="plusminus" unicode="&#xb1;" horiz-adv-x="630" 
d="M465 452v-117h-174v-174h-116v174h-175v117h175v174h116v-174h174zM462 0v116h-462v-116h462z" />
    <glyph glyph-name="guillemotleft" unicode="&#xab;" horiz-adv-x="657" 
d="M236 499l72 -74l-166 -175l166 -175l-72 -75l-236 250zM445 499l72 -74l-166 -175l166 -175l-72 -75l-236 250z" />
    <glyph glyph-name="guillemotright" unicode="&#xbb;" horiz-adv-x="659" 
d="M281 0l-71 75l166 175l-166 174l71 76l237 -250zM72 0l-72 75l166 175l-166 174l72 76l236 -250z" />
    <glyph glyph-name="guilsinglleft" unicode="&#x2039;" horiz-adv-x="448" 
d="M236 499l72 -74l-166 -175l166 -175l-72 -75l-236 250z" />
    <glyph glyph-name="guilsinglright" unicode="&#x203a;" horiz-adv-x="446" 
d="M72 0l-72 75l166 175l-166 174l72 76l236 -250z" />
    <glyph glyph-name="section" unicode="&#xa7;" horiz-adv-x="472" 
d="M228 477c52 -23 80 -71 81 -128c0 -42 -15 -77 -43 -102c28 -26 43 -61 43 -104c0 -58 -29 -104 -81 -127c-35 -16 -70 -17 -74 -17c-3 0 -38 1 -73 17c-52 23 -81 69 -81 127h82c0 -26 10 -42 33 -52c18 -9 38 -9 39 -9c2 0 23 0 42 10c21 10 31 26 31 51
c0 27 -10 43 -33 53c-19 9 -39 9 -40 9c-3 0 -38 1 -73 17c-52 23 -80 71 -81 128c0 42 15 77 43 103c-28 25 -43 60 -43 103c0 58 29 104 81 127c35 16 70 17 73 17c4 0 39 -1 74 -17c52 -23 81 -69 81 -127h-82c0 26 -10 42 -33 52c-18 9 -38 9 -39 10
c-2 -1 -23 -1 -42 -10c-21 -11 -31 -27 -31 -52c0 -26 10 -43 33 -53c19 -9 39 -9 39 -9c4 0 39 -1 74 -17zM196 298c21 10 31 26 31 52s-10 42 -33 52c-18 8 -38 9 -39 9c-2 0 -23 -1 -42 -10c-21 -10 -31 -26 -31 -51c0 -27 10 -43 33 -53c18 -8 38 -9 39 -9
c2 0 23 1 42 10z" />
  </font>
</defs>
</svg>
